PathFileType	4	(X/Y/Z)	1H_rest_med_left.trc
DataRate	CameraRate	NumFrames	NumMarkers	Units	OrigDataRate	OrigDataStartFrame	OrigNumFrames
250.00	250.00	12	18	mm	250.00	20544	23478
Frame#	Time	c7	r_should	l_should	clavicle	r_upa	r_elb_l	r_elb_m	r_low	r_wri_l	r_wri_m	r_met	l_upa	l_elb_l	l_elb_m	l_low	l_wri_l	l_wri_m	l_met
	X1	Y1	Z1	X2	Y2	Z2	X3	Y3	Z3	X4	Y4	Z4	X5	Y5	Z5	X6	Y6	Z6	X7	Y7	Z7	X8	Y8	Z8	X9	Y9	Z9	X10	Y10	Z10	X11	Y11	Z11	X12	Y12	Z12	X13	Y13	Z13	X14	Y14	Z14	X15	Y15	Z15	X16	Y16	Z16	X17	Y17	Z17	X18	Y18	Z18
20544	82.17200	650.97546	1420.09583	259.44104	706.14575	1363.16211	417.66205	698.89606	1364.51892	94.48396	783.90802	1283.88855	252.05177	703.62396	1157.16833	492.29205	697.41779	1068.60596	514.54999	647.13855	1033.81152	447.54428	751.76007	893.43414	500.21939	712.50146	807.96588	500.06653	777.84705	829.11554	470.94727	814.24280	751.95380	499.13199	687.03253	1172.28394	31.00081	698.82294	1072.06470	17.78384	685.47534	1031.17017	94.10278	809.62762	964.32147	7.58576	881.61218	932.54688	31.70002	840.76978	870.54846	30.04586	947.78680	891.87006	-10.15607
20545	82.17600	651.22498	1420.10498	259.36572	706.34869	1363.17273	417.62228	699.21802	1364.49341	94.43475	784.14307	1283.86353	252.05772	703.75226	1157.22510	492.31229	697.52679	1068.66455	514.57739	647.25018	1033.86182	447.55386	751.81750	893.45587	500.27417	712.55035	808.03717	500.16986	777.90521	829.12653	471.02328	814.27350	751.96588	499.24176	687.37762	1172.26843	31.00785	699.13196	1071.95667	17.77247	685.64478	1031.08862	94.11858	809.41180	963.45709	7.59981	881.23816	931.25745	31.72210	840.01166	869.50006	30.13412	947.11755	890.14734	-10.14270
20546	82.18000	651.46576	1420.11987	259.29968	706.55017	1363.18750	417.58334	699.54047	1364.47290	94.38834	784.37494	1283.83545	252.06000	703.88739	1157.28455	492.32944	697.63580	1068.72913	514.60297	647.37518	1033.92212	447.56104	751.87280	893.47876	500.32742	712.60706	808.12585	500.27240	777.97064	829.13818	471.10904	814.31372	751.98132	499.34790	687.72394	1172.25952	31.01914	699.45679	1071.86340	17.75734	685.82764	1031.01953	94.13226	809.19482	962.59949	7.60227	880.86792	929.99780	31.73339	839.28107	868.46832	30.18690	946.45068	888.44092	-10.10799
20547	82.18400	651.70038	1420.13440	259.25137	706.74652	1363.21069	417.54480	699.86597	1364.46667	94.33691	784.60645	1283.80676	252.05731	704.00665	1157.33325	492.33423	697.73175	1068.78870	514.61615	647.49414	1033.98193	447.56363	751.92407	893.50549	500.39035	712.65955	808.21271	500.35815	778.04193	829.15295	471.19498	814.36029	752.00317	499.46329	688.04712	1172.25183	31.00365	699.75446	1071.77161	17.71737	686.00018	1030.96045	94.13200	808.96777	961.73138	7.59852	880.49939	928.73401	31.72715	838.52509	867.41351	30.20879	945.78174	886.74701	-10.07618
20548	82.18800	651.94629	1420.14990	259.20255	706.94696	1363.24109	417.51111	700.19208	1364.46545	94.29084	784.83228	1283.78723	252.04749	704.09991	1157.36365	492.31665	697.80194	1068.83459	514.61420	647.59906	1034.03381	447.54065	751.98022	893.53265	500.44571	712.70599	808.27722	500.41254	778.11493	829.17755	471.27759	814.41248	752.03754	499.58093	688.32886	1172.23694	30.94734	700.01752	1071.67529	17.64031	686.12531	1030.90308	94.10757	808.73334	960.88348	7.58923	880.11774	927.47491	31.72055	837.74365	866.35901	30.22387	945.10950	885.06482	-10.06674
20549	82.19200	652.19763	1420.15820	259.14868	707.15082	1363.27026	417.47800	700.51050	1364.45947	94.24572	785.05322	1283.76904	252.04843	704.18201	1157.37781	492.29013	697.85553	1068.85706	514.59302	647.68597	1034.06592	447.50220	752.04333	893.55872	500.49634	712.74786	808.30676	500.43298	778.19189	829.20306	471.36502	814.47552	752.07574	499.69983	688.57764	1172.21716	30.86292	700.24628	1071.55872	17.54741	686.19836	1030.82983	94.06783	808.49719	960.03552	7.56973	879.72382	926.22504	31.73815	836.92017	865.29150	30.18963	944.43549	883.39539	-10.05500
20550	82.19600	652.44678	1420.15784	259.10229	707.36255	1363.28955	417.45004	700.81927	1364.44910	94.20226	785.28107	1283.75012	252.05391	704.27069	1157.37134	492.25983	697.91022	1068.86475	514.57092	647.77142	1034.07214	447.47159	752.10895	893.58569	500.55164	712.79718	808.31409	500.44812	778.28394	829.23267	471.44681	814.53912	752.10632	499.82611	688.81506	1172.18713	30.78136	700.46405	1071.42749	17.45314	686.26392	1030.72656	94.02758	808.25732	959.16412	7.55802	879.34241	924.97748	31.74027	836.08844	864.19513	30.11058	943.74249	881.71802	-10.03583
20551	82.20000	652.68988	1420.15247	259.05936	707.57593	1363.30322	417.42636	701.12347	1364.43188	94.16428	785.50793	1283.73987	252.05928	704.36987	1157.36768	492.23834	697.97363	1068.87427	514.56226	647.85907	1034.07117	447.45880	752.17523	893.61658	500.60941	712.85059	808.31165	500.46820	778.37720	829.26923	471.52142	814.60669	752.13190	499.94464	689.05182	1172.16443	30.70578	700.68677	1071.29761	17.36243	686.34534	1030.60144	93.99142	808.02954	958.32697	7.54859	878.82977	923.45905	31.54501	835.26831	863.11230	30.06679	943.04193	880.03064	-10.01260
20552	82.20400	652.92334	1420.14490	259.01392	707.77606	1363.31177	417.40192	701.41754	1364.41638	94.12509	785.73566	1283.74109	252.05928	704.46802	1157.38623	492.23117	698.05298	1068.89893	514.56940	647.95355	1034.08801	447.45706	752.25073	893.65747	500.65982	712.90497	808.32117	500.50949	778.46661	829.30542	471.59229	814.67639	752.15820	500.04965	689.30255	1172.15186	30.65417	700.93634	1071.19604	17.28395	686.45538	1030.49658	93.96957	807.80823	957.51880	7.52490	878.12622	921.57629	31.11115	834.45361	862.07532	30.09772	942.34503	878.34619	-9.98628
20553	82.20800	653.15631	1420.14380	258.96429	707.96716	1363.32117	417.36481	701.70966	1364.40747	94.08563	785.96008	1283.74548	252.05112	704.58563	1157.42932	492.23322	698.14691	1068.94873	514.59302	648.05212	1034.12939	447.46442	752.33429	893.69641	500.69745	712.97443	808.36053	500.57101	778.55609	829.33466	471.65479	814.75092	752.19019	500.13889	689.58032	1172.15234	30.62597	701.22345	1071.12170	17.21712	686.59186	1030.42175	93.95402	807.58807	956.70978	7.48786	877.62079	920.15521	30.99145	833.66986	861.09302	30.11741	941.63556	876.68488	-9.96158
20554	82.21200	653.38635	1420.15637	258.91156	708.15680	1363.34070	417.33215	701.99432	1364.40320	94.04785	786.17853	1283.74536	252.04286	704.72327	1157.47632	492.24893	698.26788	1069.00940	514.62140	648.18347	1034.17981	447.47528	752.42236	893.72717	500.73480	713.05585	808.43152	500.64993	778.65588	829.35577	471.70847	814.83374	752.21710	500.21899	689.88208	1172.17822	30.60328	701.55072	1071.07202	17.15013	686.77466	1030.37830	93.93245	807.38190	955.90723	7.44526	877.17047	918.84375	30.93890	832.91113	860.12683	30.11348	940.92389	875.02734	-9.93579
20555	82.21600	653.62189	1420.17688	258.85471	708.36218	1363.35754	417.30612	702.27466	1364.40479	94.01179	786.39545	1283.74280	252.04176	704.86224	1157.51990	492.26315	698.39313	1069.06433	514.64410	648.33057	1034.23853	447.48410	752.51947	893.75043	500.77246	713.15002	808.51190	500.72610	778.75360	829.36572	471.76566	814.92236	752.23669	500.29742	690.20068	1172.21326	30.57872	701.90033	1071.03210	17.07109	686.99182	1030.34680	93.89697	807.12836	955.03040	7.36747	876.76233	917.55988	30.82439	832.15430	859.17340	30.14472	940.22278	873.39532	-9.91268
